<svg width="200" height="71" fill="none" xmlns="http://www.w3.org/2000/svg"><g clip-path="url(#clip0)"><path d="M20.855 20.668c1.466 0 2.54-.186 3.221-.537.681-.35 1.012-.95 1.012-1.817 0-.805-.351-1.466-1.074-1.982-.723-.516-1.9-1.094-3.572-1.693a29.791 29.791 0 01-2.788-1.177c-.846-.413-1.569-.888-2.188-1.445a5.868 5.868 0 01-1.446-2.003c-.35-.785-.537-1.734-.537-2.87 0-2.21.806-3.944 2.437-5.224C17.55.64 19.76 0 22.548 0c1.404 0 2.767.124 4.047.392 1.28.269 2.25.516 2.89.764l-.99 4.501a14.355 14.355 0 00-2.354-.764c-.95-.227-2.065-.35-3.304-.35-1.136 0-2.065.185-2.767.578-.702.392-1.053.97-1.053 1.775 0 .393.062.744.207 1.053.144.31.371.6.722.847.33.268.785.516 1.342.784.558.269 1.219.537 2.024.806 1.322.495 2.436.97 3.366 1.445.929.475 1.672 1.012 2.271 1.61a5.71 5.71 0 011.321 2.045c.269.764.413 1.693.413 2.767 0 2.291-.846 4.046-2.56 5.223-1.693 1.177-4.13 1.776-7.289 1.776-2.127 0-3.82-.186-5.1-.537-1.28-.35-2.189-.64-2.705-.846l.97-4.646c.826.33 1.818.66 2.974.97 1.094.31 2.416.475 3.882.475zM48.937 9.519a161.255 161.255 0 01-2.272 7.887 210.5 210.5 0 01-2.416 7.247h-4.563c-.62-1.404-1.26-3.014-1.94-4.831a154.125 154.125 0 01-2.024-5.802 249.392 249.392 0 01-2.024-6.484A278.082 278.082 0 0131.716.6H37.6c.268 1.28.599 2.684.97 4.17.372 1.487.764 3.015 1.157 4.564.392 1.548.825 3.056 1.238 4.521a79.344 79.344 0 001.301 4.047 228.7 228.7 0 001.363-4.377c.454-1.507.867-3.014 1.26-4.501.392-1.507.784-2.973 1.135-4.398.351-1.425.661-2.767.95-4.026h4.274c.269 1.26.578 2.601.909 4.026.33 1.425.702 2.89 1.073 4.398.393 1.507.806 3.014 1.24 4.501.433 1.507.887 2.953 1.362 4.377.392-1.218.826-2.58 1.24-4.046.433-1.466.846-2.974 1.28-4.522.412-1.549.805-3.077 1.176-4.563.372-1.487.702-2.87.97-4.171h5.762a254.9 254.9 0 01-1.983 6.937c-.681 2.272-1.342 4.44-2.023 6.484a202.65 202.65 0 01-2.024 5.802 76.452 76.452 0 01-1.982 4.831h-4.522a363.785 363.785 0 01-2.457-7.247 125.609 125.609 0 01-2.333-7.887zM74.788.599h-5.575v24.054h5.575V.6zM86.6 20.668c1.465 0 2.539-.186 3.22-.537.682-.35 1.012-.95 1.012-1.817 0-.805-.35-1.466-1.074-1.982-.722-.516-1.9-1.094-3.572-1.693a29.827 29.827 0 01-2.787-1.177c-.847-.413-1.57-.888-2.189-1.445a5.865 5.865 0 01-1.445-2.003c-.351-.785-.537-1.734-.537-2.87 0-2.21.805-3.944 2.436-5.224 1.632-1.28 3.84-1.9 6.628-1.9 1.404 0 2.767.125 4.047.393 1.28.268 2.251.516 2.891.764l-1.01 4.501a14.362 14.362 0 00-2.354-.764c-.95-.227-2.065-.35-3.304-.35-1.136 0-2.065.185-2.767.577-.702.393-1.053.97-1.053 1.776 0 .392.062.743.206 1.053.145.31.372.599.723.846.33.269.785.517 1.342.785.558.269 1.218.537 2.024.805 1.321.496 2.436.97 3.365 1.446.93.475 1.673 1.011 2.272 1.61a5.709 5.709 0 011.321 2.044c.269.764.413 1.693.413 2.767 0 2.292-.846 4.047-2.56 5.224-1.693 1.177-4.13 1.776-7.29 1.776-2.126 0-3.819-.186-5.1-.537-1.28-.351-2.188-.64-2.704-.847l.97-4.645c.826.33 1.817.66 2.974.97 1.115.289 2.436.454 3.902.454zm19.739 0c1.466 0 2.54-.186 3.221-.537.682-.35 1.012-.95 1.012-1.817 0-.805-.351-1.466-1.074-1.982-.722-.516-1.899-1.094-3.572-1.693a29.687 29.687 0 01-2.787-1.177c-.847-.413-1.57-.888-2.189-1.445a5.86 5.86 0 01-1.446-2.003c-.35-.785-.536-1.734-.536-2.87 0-2.21.805-3.944 2.436-5.224C103.035.64 105.245 0 108.053 0c1.404 0 2.767.124 4.047.392 1.28.269 2.251.516 2.891.764l-1.012 4.501a14.373 14.373 0 00-2.354-.764c-.95-.227-2.065-.35-3.304-.35-1.135 0-2.064.185-2.767.578-.702.392-1.053.97-1.053 1.775 0 .393.062.744.207 1.053.144.31.372.6.723.847.33.268.784.516 1.342.784a17.13 17.13 0 002.023.806c1.322.495 2.437.97 3.366 1.445.929.475 1.672 1.012 2.271 1.61a5.708 5.708 0 011.322 2.045c.268.764.413 1.693.413 2.767 0 2.291-.847 4.046-2.561 5.223-1.693 1.177-4.129 1.776-7.289 1.776-2.126 0-3.819-.186-5.1-.537-1.28-.35-2.188-.64-2.705-.846l.97-4.646c.827.33 1.818.66 2.974.97 1.095.31 2.416.475 3.882.475z" fill="#000"/><path d="M35.478 50.13c0 3.139-.454 5.947-1.383 8.466-.93 2.52-2.23 4.666-3.944 6.442-1.714 1.797-3.8 3.16-6.236 4.109-2.436.95-5.203 1.425-8.28 1.425-2.973 0-5.822-.227-8.548-.682-2.705-.454-4.956-.95-6.752-1.486 0 0-.867-63.74.124-64.958C1.449 2.228 9.338.081 9.338.081l.04 31.859c1.054-.537 2.334-1.053 3.841-1.487 1.508-.454 3.201-.681 5.039-.681 2.725 0 5.182.475 7.35 1.445 2.169.97 3.965 2.354 5.41 4.15 1.446 1.797 2.54 3.944 3.325 6.443.764 2.519 1.135 5.306 1.135 8.32zm-9.25-.144c0-3.82-.764-6.855-2.271-9.106-1.528-2.23-3.924-3.365-7.207-3.365-1.486 0-2.89.227-4.212.681-1.321.455-2.374.95-3.18 1.487v22.444c.64.144 1.487.289 2.499.413 1.011.124 2.25.186 3.696.186 3.324 0 5.947-1.136 7.825-3.387 1.92-2.25 2.85-5.368 2.85-9.353zm51.761.105c0 3.076-.454 5.885-1.342 8.424-.888 2.54-2.168 4.708-3.8 6.484-1.63 1.796-3.613 3.18-5.926 4.17-2.312.991-4.852 1.487-7.64 1.487-2.787 0-5.327-.496-7.598-1.487A17.156 17.156 0 0145.798 65c-1.652-1.797-2.932-3.944-3.84-6.484-.93-2.54-1.384-5.348-1.384-8.424 0-3.077.454-5.885 1.384-8.383.929-2.519 2.209-4.666 3.881-6.442a17.102 17.102 0 015.926-4.15c2.292-.97 4.79-1.445 7.537-1.445 2.726 0 5.265.474 7.578 1.445 2.313.97 4.295 2.354 5.926 4.15 1.652 1.796 2.912 3.944 3.84 6.442.889 2.498 1.343 5.306 1.343 8.383zm-9.25 0c0-3.882-.827-6.958-2.499-9.209-1.673-2.271-3.985-3.386-6.98-3.386-2.993 0-5.306 1.136-6.978 3.386-1.673 2.271-2.499 5.327-2.499 9.209 0 3.923.826 7.04 2.499 9.333 1.672 2.292 3.985 3.427 6.979 3.427s5.306-1.135 6.979-3.427c1.672-2.292 2.498-5.41 2.498-9.333zm29.382-7.536l8.301-11.935h9.477l-13.091 18.686a229.671 229.671 0 017.867 10.427c2.519 3.51 4.584 6.814 6.195 9.911h-9.829a29.1 29.1 0 00-1.755-3.014c-.723-1.095-1.487-2.23-2.292-3.428a128.38 128.38 0 00-2.56-3.53 132.048 132.048 0 00-2.602-3.283c-1.755 2.023-3.448 4.274-5.12 6.73-1.673 2.458-3.057 4.626-4.151 6.525h-9.21a42.778 42.778 0 012.726-4.728 171.881 171.881 0 017.248-10.262c1.3-1.734 2.602-3.365 3.882-4.935L79.97 30.641h9.911l8.239 11.914z" fill="#000"/><path d="M186.021 55.852h-41.813L130.229 69.85H200l-13.979-14zM130.229 0l13.979 14h41.813L200 0h-69.771z" fill="#1A7A67"/><path d="M130.229 0v69.85l13.979-13.998V13.999L130.229 0zm55.792 14v41.852L200 69.85V0l-13.979 14z" fill="#6AB760"/><path fill-rule="evenodd" clip-rule="evenodd" d="M163.06 43.34V26.531h4.13V43.34h-4.13z" fill="#6AB660"/><path fill-rule="evenodd" clip-rule="evenodd" d="M156.7 32.87h16.829V37H156.7v-4.13z" fill="#197B68"/></g><defs><clipPath id="clip0"><path fill="#fff" d="M0 0h200v70.677H0z"/></clipPath></defs></svg>