<svg width="30" height="30" fill="none" xmlns="http://www.w3.org/2000/svg"><path clip-rule="evenodd" d="M8.25 1.5h13.5c3.75 0 6.75 3 6.75 6.75v13.5c0 3.75-3 6.75-6.75 6.75H8.25c-3.75 0-6.75-3-6.75-6.75V8.25c0-3.75 3-6.75 6.75-6.75z" stroke="#B4DAB1" stroke-width="1.8" stroke-miterlimit="10" stroke-linecap="round" stroke-linejoin="round"/><path d="M22.35 7.05c-.3 0-.45.3-.45.45 0 .3.3.45.45.45.3 0 .45-.3.45-.45.15-.15-.15-.45-.45-.45zM15 20.4a5.4 5.4 0 100-10.8 5.4 5.4 0 000 10.8z" stroke="#B4DAB1" stroke-width="1.8" stroke-miterlimit="10" stroke-linecap="round" stroke-linejoin="round"/></svg>