<svg width="29" height="29" fill="none" xmlns="http://www.w3.org/2000/svg"><path d="M24.058 4.942C21.592 2.475 18.2.933 14.5.933 7.1.933 1.087 6.946 1.087 14.346c0 2.312.617 4.625 1.85 6.783l-1.85 6.938 7.092-1.85c2.004 1.079 4.163 1.696 6.475 1.696 7.4 0 13.413-6.013 13.413-13.413 0-3.7-1.542-7.092-4.009-9.558z" stroke="#B4DAB1" stroke-width="1.8" stroke-miterlimit="10" stroke-linecap="round" stroke-linejoin="round"/><path d="M16.196 16.967l.616-.617a1.65 1.65 0 012.159-.154c.616.462 1.233.925 1.696 1.233.925.617.925 1.85.154 2.621l-.617.617M8.487 8.642l.617-.617c.771-.77 2.004-.617 2.621.308.308.617.77 1.08 1.233 1.696a1.651 1.651 0 01-.154 2.159l-.617.616m8.171 7.708c-2.312 2.313-6.166.309-9.096-2.62m0-.154C8.18 14.654 6.33 10.8 8.642 8.642m3.391 4.162c.463.771 1.08 1.542 1.85 2.313.771.77 1.542 1.387 2.313 1.85" stroke="#B4DAB1" stroke-width="1.8" stroke-miterlimit="10" stroke-linecap="round" stroke-linejoin="round"/></svg>