<svg width="30" height="30" fill="none" xmlns="http://www.w3.org/2000/svg"><path d="M8.25 1.5h13.5c3.75 0 6.75 3 6.75 6.75v13.5c0 3.75-3 6.75-6.75 6.75H8.25c-3.75 0-6.75-3-6.75-6.75V8.25c0-3.75 3-6.75 6.75-6.75z" stroke="#B4DAB1" stroke-width="1.8" stroke-linecap="round" stroke-linejoin="round"/><path d="M20.1 21.75H9.9c-1.95 0-3.45-1.5-3.45-3.45v-6.75c0-1.95 1.5-3.45 3.45-3.45h10.2c1.95 0 3.45 1.5 3.45 3.45v6.75c0 1.95-1.5 3.45-3.45 3.45z" stroke="#B4DAB1" stroke-width="1.5" stroke-linecap="round" stroke-linejoin="round"/><path d="M22.5 9.15l-5.4 5.4c-1.2 1.2-3.15 1.2-4.2 0l-5.4-5.4m5.4 5.4L7.05 20.4m10.05-5.85l5.85 5.85" stroke="#B4DAB1" stroke-width="1.5" stroke-linecap="round" stroke-linejoin="round"/></svg>