<svg width="200" height="71" viewBox="0 0 200 71" fill="none" xmlns="http://www.w3.org/2000/svg">
<g clip-path="url(#clip0)">
<path d="M20.8548 20.6682C22.3209 20.6682 23.3946 20.4824 24.076 20.1314C24.7574 19.7804 25.0878 19.1816 25.0878 18.3144C25.0878 17.5091 24.7367 16.8484 24.014 16.3322C23.2914 15.816 22.1144 15.2379 20.4419 14.6391C19.4301 14.2675 18.5009 13.8752 17.6543 13.4622C16.8078 13.0493 16.0851 12.5744 15.4656 12.0169C14.8462 11.4594 14.3713 10.7987 14.0202 10.0141C13.6692 9.22946 13.4834 8.27967 13.4834 7.14406C13.4834 4.93477 14.2887 3.20037 15.9199 1.92022C17.5511 0.640075 19.7605 0 22.548 0C23.9521 0 25.3149 0.123885 26.5951 0.392304C27.8753 0.660722 28.8458 0.908493 29.4859 1.15626L28.4947 5.65743C27.8753 5.38902 27.0907 5.1206 26.1408 4.89347C25.191 4.66635 24.076 4.54246 22.8371 4.54246C21.7014 4.54246 20.7723 4.72829 20.0702 5.1206C19.3682 5.5129 19.0171 6.09103 19.0171 6.89629C19.0171 7.28859 19.0791 7.6396 19.2236 7.94931C19.3682 8.25903 19.5953 8.54809 19.9463 8.79586C20.2767 9.06428 20.731 9.31205 21.2885 9.58047C21.846 9.84889 22.5067 10.1173 23.312 10.3857C24.6335 10.8813 25.7485 11.3562 26.6777 11.8311C27.6069 12.306 28.3502 12.8428 28.949 13.4416C29.5478 14.0403 29.9814 14.7217 30.2705 15.4857C30.5389 16.2496 30.6835 17.1788 30.6835 18.2525C30.6835 20.5443 29.8369 22.2994 28.1231 23.4763C26.4299 24.6532 23.9934 25.252 20.8342 25.252C18.7074 25.252 17.0142 25.0661 15.734 24.7151C14.4539 24.3641 13.5453 24.0751 13.0291 23.8686L13.9996 19.2229C14.8255 19.5532 15.8166 19.8836 16.973 20.1933C18.0673 20.503 19.3888 20.6682 20.8548 20.6682Z" fill="black"/>
<path d="M48.9366 9.51854C48.2346 12.2234 47.4706 14.8456 46.6653 17.4059C45.86 19.9662 45.0547 22.382 44.2495 24.6532H39.6862C39.0667 23.2492 38.4266 21.6387 37.7452 19.8217C37.0638 18.0047 36.4031 16.0845 35.7217 14.0197C35.0403 11.955 34.3795 9.8076 33.6982 7.53637C33.0168 5.26514 32.356 2.95261 31.7159 0.598785H37.6007C37.8691 1.87894 38.1995 3.28297 38.5712 4.7696C38.9428 6.25622 39.3351 7.78414 39.7275 9.33271C40.1198 10.8813 40.5534 12.3886 40.9664 13.8545C41.4 15.3205 41.8336 16.6832 42.2672 17.9015C42.7215 16.4974 43.1757 15.0314 43.63 13.5242C44.0843 12.0169 44.4972 10.5096 44.8896 9.023C45.2819 7.51572 45.6742 6.04975 46.0252 4.62506C46.3762 3.20038 46.686 1.85829 46.975 0.598785H51.2492C51.5177 1.85829 51.8274 3.20038 52.1578 4.62506C52.4881 6.04975 52.8598 7.51572 53.2315 9.023C53.6238 10.5303 54.0368 12.0375 54.4704 13.5242C54.904 15.0314 55.3583 16.4768 55.8332 17.9015C56.2255 16.6832 56.6591 15.3205 57.0721 13.8545C57.5057 12.3886 57.9187 10.8813 58.3523 9.33271C58.7652 7.78414 59.1576 6.25622 59.5292 4.7696C59.9009 3.28297 60.2313 1.89958 60.4997 0.598785H66.2606C65.6205 2.95261 64.9597 5.28579 64.2783 7.53637C63.5969 9.8076 62.9362 11.9756 62.2548 14.0197C61.5734 16.0845 60.892 18.0047 60.2313 19.8217C59.5499 21.6387 58.8891 23.2492 58.249 24.6532H53.727C52.9218 22.382 52.1165 19.9662 51.2699 17.4059C50.4233 14.8456 49.6387 12.2234 48.9366 9.51854Z" fill="black"/>
<path d="M74.7884 0.598785H69.2133V24.6532H74.7884V0.598785Z" fill="black"/>
<path d="M86.5992 20.6682C88.0653 20.6682 89.139 20.4824 89.8204 20.1314C90.5018 19.7804 90.8321 19.1816 90.8321 18.3144C90.8321 17.5091 90.4811 16.8484 89.7584 16.3322C89.0357 15.816 87.8588 15.2379 86.1862 14.6391C85.1745 14.2675 84.2453 13.8751 83.3987 13.4622C82.5521 13.0492 81.8294 12.5744 81.21 12.0169C80.5905 11.4594 80.1156 10.7987 79.7646 10.0141C79.4136 9.22945 79.2277 8.27966 79.2277 7.14404C79.2277 4.93475 80.033 3.20036 81.6642 1.92021C83.2955 0.640057 85.5049 0.0206299 88.2924 0.0206299C89.6965 0.0206299 91.0593 0.144515 92.3395 0.412934C93.6197 0.681352 94.5902 0.929123 95.2303 1.17689L94.2185 5.67806C93.599 5.40965 92.8144 5.14123 91.8646 4.9141C90.9147 4.68698 89.7997 4.5631 88.5608 4.5631C87.4252 4.5631 86.496 4.74892 85.7939 5.14123C85.0919 5.53353 84.7409 6.11166 84.7409 6.91692C84.7409 7.30922 84.8028 7.66023 84.9473 7.96994C85.0919 8.27966 85.319 8.56872 85.67 8.81649C86.0004 9.08491 86.4547 9.33268 87.0122 9.6011C87.5697 9.86952 88.2304 10.1379 89.0357 10.4064C90.3572 10.9019 91.4722 11.3768 92.4014 11.8517C93.3306 12.3266 94.0739 12.8634 94.6727 13.4622C95.2716 14.061 95.7052 14.7423 95.9942 15.5063C96.2627 16.2703 96.4072 17.1994 96.4072 18.2731C96.4072 20.565 95.5606 22.32 93.8468 23.4969C92.1536 24.6738 89.7171 25.2726 86.5579 25.2726C84.4311 25.2726 82.738 25.0868 81.4578 24.7358C80.1776 24.3848 79.269 24.0957 78.7528 23.8892L79.7233 19.2435C80.5492 19.5739 81.5404 19.9042 82.6967 20.214C83.8117 20.503 85.1332 20.6682 86.5992 20.6682Z" fill="black"/>
<path d="M106.339 20.6682C107.805 20.6682 108.879 20.4824 109.56 20.1314C110.242 19.7804 110.572 19.1816 110.572 18.3144C110.572 17.5091 110.221 16.8484 109.498 16.3322C108.776 15.816 107.599 15.2379 105.926 14.6391C104.914 14.2675 103.985 13.8752 103.139 13.4622C102.292 13.0493 101.569 12.5744 100.95 12.0169C100.33 11.4594 99.8556 10.7987 99.5045 10.0141C99.1535 9.22946 98.9677 8.27967 98.9677 7.14406C98.9677 4.93477 99.773 3.20037 101.404 1.92022C103.035 0.640075 105.245 0 108.053 0C109.457 0 110.82 0.123885 112.1 0.392304C113.38 0.660722 114.351 0.908493 114.991 1.15626L113.979 5.65743C113.359 5.38902 112.575 5.1206 111.625 4.89347C110.675 4.66635 109.56 4.54246 108.321 4.54246C107.186 4.54246 106.257 4.72829 105.554 5.1206C104.852 5.5129 104.501 6.09103 104.501 6.89629C104.501 7.28859 104.563 7.6396 104.708 7.94931C104.852 8.25903 105.08 8.54809 105.431 8.79586C105.761 9.06428 106.215 9.31205 106.773 9.58047C107.33 9.84889 107.991 10.1173 108.796 10.3857C110.118 10.8813 111.233 11.3562 112.162 11.8311C113.091 12.306 113.834 12.8428 114.433 13.4416C115.032 14.0403 115.466 14.7217 115.755 15.4857C116.023 16.2496 116.168 17.1788 116.168 18.2525C116.168 20.5443 115.321 22.2994 113.607 23.4763C111.914 24.6532 109.478 25.252 106.318 25.252C104.192 25.252 102.499 25.0661 101.218 24.7151C99.9382 24.3641 99.0296 24.0751 98.5134 23.8686L99.4839 19.2229C100.31 19.5532 101.301 19.8836 102.457 20.1933C103.552 20.503 104.873 20.6682 106.339 20.6682Z" fill="black"/>
<path d="M35.4785 50.1306C35.4785 53.269 35.0242 56.0771 34.095 58.5961C33.1658 61.1151 31.865 63.2624 30.1512 65.0381C28.4374 66.8345 26.3519 68.1972 23.9154 69.147C21.4789 70.0968 18.712 70.5717 15.6354 70.5717C12.662 70.5717 9.81252 70.3446 7.08693 69.8903C4.38199 69.4361 2.13132 68.9405 0.334912 68.4037C0.334912 68.4037 -0.53232 4.66455 0.458802 3.44634C1.44992 2.22813 9.3376 0.08078 9.3376 0.08078L9.3789 31.94C10.432 31.4032 11.7122 30.887 13.2195 30.4534C14.7268 29.9991 16.42 29.772 18.2577 29.772C20.9833 29.772 23.4404 30.2469 25.6085 31.2174C27.7766 32.1878 29.573 33.5712 31.0184 35.3675C32.4638 37.1639 33.5582 39.3112 34.3428 41.8096C35.1068 44.3286 35.4785 47.116 35.4785 50.1306ZM26.228 49.986C26.228 46.1662 25.464 43.131 23.9567 40.8804C22.4287 38.6505 20.0335 37.5149 16.7504 37.5149C15.2637 37.5149 13.8596 37.742 12.5381 38.1962C11.2166 38.6505 10.1635 39.146 9.35825 39.6829V62.1268C9.99835 62.2713 10.8449 62.4159 11.8567 62.5398C12.8685 62.6636 14.1074 62.7256 15.5528 62.7256C18.8772 62.7256 21.4995 61.59 23.3785 59.3394C25.2988 57.0888 26.228 53.971 26.228 49.986Z" fill="black"/>
<path d="M77.9889 50.091C77.9889 53.1675 77.5346 55.9756 76.6467 58.5152C75.7589 61.0549 74.4787 63.2229 72.8474 64.9985C71.2162 66.7949 69.234 68.1783 66.9214 69.1694C64.6087 70.1604 62.069 70.656 59.2815 70.656C56.4939 70.656 53.9542 70.1604 51.6828 69.1694C49.3909 68.1783 47.4293 66.7742 45.7981 64.9985C44.1462 63.2022 42.866 61.0549 41.9575 58.5152C41.0283 55.9756 40.574 53.1675 40.574 50.091C40.574 47.0145 41.0283 44.2064 41.9575 41.7081C42.8866 39.1891 44.1668 37.0417 45.8394 35.266C47.5119 33.4697 49.4735 32.0863 51.7654 31.1159C54.0574 30.1454 56.5559 29.6705 59.3021 29.6705C62.0277 29.6705 64.5674 30.1454 66.8801 31.1159C69.1927 32.0863 71.1749 33.4697 72.8061 35.266C74.458 37.0624 75.7176 39.2097 76.6467 41.7081C77.5346 44.2064 77.9889 47.0145 77.9889 50.091ZM68.7384 50.091C68.7384 46.2092 67.9125 43.1328 66.24 40.8822C64.5674 38.6109 62.2548 37.496 59.2608 37.496C56.2668 37.496 53.9542 38.6316 52.2817 40.8822C50.6091 43.1534 49.7832 46.2092 49.7832 50.091C49.7832 54.014 50.6091 57.1318 52.2817 59.4237C53.9542 61.7156 56.2668 62.8512 59.2608 62.8512C62.2548 62.8512 64.5674 61.7156 66.24 59.4237C67.9125 57.1318 68.7384 54.014 68.7384 50.091Z" fill="black"/>
<path d="M98.121 42.5547L106.422 30.6204H115.899L102.808 49.3064C105.554 52.7339 108.177 56.2234 110.675 59.7334C113.194 63.2435 115.259 66.5471 116.87 69.6443H107.041C106.587 68.7358 106.009 67.7241 105.286 66.6297C104.563 65.5354 103.799 64.3998 102.994 63.2022C102.168 62.0253 101.321 60.8484 100.434 59.6715C99.5457 58.5152 98.6785 57.4209 97.8319 56.3885C96.0768 58.412 94.3837 60.6626 92.7111 63.1197C91.0386 65.5767 89.6552 67.7447 88.5608 69.6443H79.3517C80.095 68.137 80.9829 66.5678 82.0772 64.916C83.151 63.2642 84.3073 61.5711 85.5255 59.8367C86.7438 58.1023 88.024 56.3679 89.3248 54.6541C90.6257 52.9198 91.9265 51.2886 93.2067 49.7194L79.9711 30.641H89.8823L98.121 42.5547Z" fill="black"/>
<path d="M186.021 55.8517H144.208L130.229 69.8507H200L186.021 55.8517Z" fill="#1A7A67"/>
<path d="M130.229 0L144.208 13.9991H186.021L200 0H130.229Z" fill="#1A7A67"/>
<path d="M130.229 0V69.8507L144.208 55.8517V13.9991L130.229 0Z" fill="#6AB760"/>
<path d="M186.021 13.9991V55.8517L200 69.8507V0L186.021 13.9991Z" fill="#6AB760"/>
<path fill-rule="evenodd" clip-rule="evenodd" d="M163.06 43.3393V26.5321H167.19V43.3393H163.06Z" fill="#6AB660"/>
<path fill-rule="evenodd" clip-rule="evenodd" d="M156.7 32.8709H173.529V37.0005H156.7V32.8709Z" fill="#197B68"/>
</g>
<defs>
<clipPath id="clip0">
<rect width="200" height="70.6766" fill="white"/>
</clipPath>
</defs>
</svg>
