<svg width="29" height="29" viewBox="0 0 29 29" fill="none" xmlns="http://www.w3.org/2000/svg">
<path d="M24.0583 4.94168C21.5917 2.47502 18.2 0.93335 14.5 0.93335C7.09999 0.93335 1.08749 6.94585 1.08749 14.3458C1.08749 16.6583 1.70416 18.9708 2.93749 21.1292L1.08749 28.0667L8.17916 26.2167C10.1833 27.2958 12.3417 27.9125 14.6542 27.9125C22.0542 27.9125 28.0667 21.9 28.0667 14.5C28.0667 10.8 26.525 7.40835 24.0583 4.94168Z" stroke="#B4DAB1" stroke-width="1.8" stroke-miterlimit="10" stroke-linecap="round" stroke-linejoin="round"/>
<path d="M16.1958 16.9667L16.8125 16.35C17.4292 15.7333 18.3542 15.7333 18.9708 16.1958C19.5875 16.6583 20.2042 17.1208 20.6667 17.4292C21.5917 18.0458 21.5917 19.2792 20.8208 20.05L20.2042 20.6667" stroke="#B4DAB1" stroke-width="1.8" stroke-miterlimit="10" stroke-linecap="round" stroke-linejoin="round"/>
<path d="M8.48749 8.64165L9.10415 8.02498C9.87499 7.25415 11.1083 7.40831 11.725 8.33331C12.0333 8.94998 12.4958 9.41248 12.9583 10.0291C13.4208 10.6458 13.4208 11.5708 12.8042 12.1875L12.1875 12.8041" stroke="#B4DAB1" stroke-width="1.8" stroke-miterlimit="10" stroke-linecap="round" stroke-linejoin="round"/>
<path d="M20.3583 20.5125C18.0458 22.825 14.1916 20.8208 11.2625 17.8917" stroke="#B4DAB1" stroke-width="1.8" stroke-miterlimit="10" stroke-linecap="round" stroke-linejoin="round"/>
<path d="M11.2625 17.7375C8.17915 14.6542 6.32915 10.8 8.64165 8.64166" stroke="#B4DAB1" stroke-width="1.8" stroke-miterlimit="10" stroke-linecap="round" stroke-linejoin="round"/>
<path d="M12.0333 12.8041C12.4958 13.575 13.1125 14.3458 13.8833 15.1166C14.6542 15.8875 15.425 16.5041 16.1958 16.9666" stroke="#B4DAB1" stroke-width="1.8" stroke-miterlimit="10" stroke-linecap="round" stroke-linejoin="round"/>
</svg>
