<svg width="30" height="30" viewBox="0 0 30 30" fill="none" xmlns="http://www.w3.org/2000/svg">
<path fill-rule="evenodd" clip-rule="evenodd" d="M8.25 1.5H21.75C25.5 1.5 28.5 4.5 28.5 8.25V21.75C28.5 25.5 25.5 28.5 21.75 28.5H8.25C4.5 28.5 1.5 25.5 1.5 21.75V8.25C1.5 4.5 4.5 1.5 8.25 1.5Z" stroke="#B4DAB1" stroke-width="1.8" stroke-miterlimit="10" stroke-linecap="round" stroke-linejoin="round"/>
<path d="M22.35 7.04999C22.05 7.04999 21.9 7.34999 21.9 7.49999C21.9 7.79999 22.2 7.94999 22.35 7.94999C22.65 7.94999 22.8 7.64999 22.8 7.49999C22.95 7.34999 22.65 7.04999 22.35 7.04999Z" stroke="#B4DAB1" stroke-width="1.8" stroke-miterlimit="10" stroke-linecap="round" stroke-linejoin="round"/>
<path d="M15 20.4C17.9823 20.4 20.4 17.9824 20.4 15C20.4 12.0177 17.9823 9.60004 15 9.60004C12.0177 9.60004 9.59999 12.0177 9.59999 15C9.59999 17.9824 12.0177 20.4 15 20.4Z" stroke="#B4DAB1" stroke-width="1.8" stroke-miterlimit="10" stroke-linecap="round" stroke-linejoin="round"/>
</svg>
