<svg width="30" height="30" viewBox="0 0 30 30" fill="none" xmlns="http://www.w3.org/2000/svg">
<path d="M8.25 1.5H21.75C25.5 1.5 28.5 4.5 28.5 8.25V21.75C28.5 25.5 25.5 28.5 21.75 28.5H8.25C4.5 28.5 1.5 25.5 1.5 21.75V8.25C1.5 4.5 4.5 1.5 8.25 1.5Z" stroke="#B4DAB1" stroke-width="1.8" stroke-linecap="round" stroke-linejoin="round"/>
<path d="M20.1 21.75H9.89998C7.94998 21.75 6.44998 20.25 6.44998 18.3V11.55C6.44998 9.60004 7.94998 8.10004 9.89998 8.10004H20.1C22.05 8.10004 23.55 9.60004 23.55 11.55V18.3C23.55 20.25 22.05 21.75 20.1 21.75Z" stroke="#B4DAB1" stroke-width="1.5" stroke-linecap="round" stroke-linejoin="round"/>
<path d="M22.5 9.14996L17.1 14.55C15.9 15.75 13.95 15.75 12.9 14.55L7.5 9.14996" stroke="#B4DAB1" stroke-width="1.5" stroke-linecap="round" stroke-linejoin="round"/>
<path d="M12.9 14.55L7.05002 20.4" stroke="#B4DAB1" stroke-width="1.5" stroke-linecap="round" stroke-linejoin="round"/>
<path d="M17.1 14.55L22.95 20.4" stroke="#B4DAB1" stroke-width="1.5" stroke-linecap="round" stroke-linejoin="round"/>
</svg>
